<svg width="127" height="128" viewBox="0 0 127 128" fill="none" xmlns="http://www.w3.org/2000/svg">
<path d="M117.2 72.9C117.7 70 117.9 67 117.9 64C117.9 45 108.1 28.2 93.4 18.4V72.9H117.2Z" fill="white"/>
<path d="M56.2 93.2C53.1 95.9 51.6 99.4 51.4 103.7H51.3V117.2C55.1 118 59.1 118.5 63.1 118.5C84.3 118.5 102.7 106.4 111.8 88.7H69.7C64 88.8 59.6 90.3 56.2 93.2Z" fill="white"/>
<path d="M77.3 40.1C77.7 40.3 78 40.5 78.3 40.7V36.3V11.4C73.5 9.99999 68.5 9.29999 63.2 9.29999C43.2 9.29999 25.7 20.1 16.1 36.2H60C66.5 36.2 72.3 37.5 77.3 40.1Z" fill="white"/>
<path d="M78.2 67.1C78 62.7 76.5 59.3 73.4 56.6C70 53.6 65.6 52.2 59.9 52.2H51.3V73V77.4C51.6 77.2 52 77 52.3 76.8C57.3 74.2 63.1 72.9 69.6 72.9H78.2V67.1Z" fill="white"/>
<path d="M9.9 52.1C9 55.9 8.6 59.9 8.6 64C8.6 84.4 19.8 102.1 36.3 111.5V52.1H9.9Z" fill="white"/>
</svg>
